<?xml version="1.0" encoding="utf-8"?>
<svg width="8px" height="18px" viewBox="0 0 8 18" version="1.1" xmlns:xlink="http://www.w3.org/1999/xlink" xmlns="http://www.w3.org/2000/svg">
  <desc>Created with Lunacy</desc>
  <path d="M2.399 1.2L6.899 7.199C7.695 8.26 7.695 9.74 6.899 10.801L2.399 16.8C1.837 17.552 0.938999 18 0 18L0 0C0.938999 0 1.837 0.448 2.399 1.2ZM1.00006 9C1.00006 9.828 1.67206 10.5 2.50006 10.5C3.32806 10.5 4.00006 9.828 4.00006 9C4.00006 8.172 3.32806 7.5 2.50006 7.5C1.67206 7.5 1.00006 8.172 1.00006 9Z" transform="matrix(-1 0 0 1 7.495972 0)" id="Shape" fill="#F7DC6F" fill-rule="evenodd" stroke="none" />
</svg>